<svg version="1.1" id="svg_resize" xmlns="http://www.w3.org/2000/svg" xmlns:xlink="http://www.w3.org/1999/xlink" x="0px" y="0px" viewBox="0 0 108 108" style="enable-background:new 0 0 108 108;" xml:space="preserve" width="108" height="108">
<style type="text/css">
	.st0{font-family:'MyriadPro-Regular';}
	.st1{font-size:12px;}
	.st2{clip-path:url(#XMLID_38_);}
	.st3{fill:#D77871;}
	.st4{fill:#CD6961;}
	.st5{fill:#BA4D49;stroke:#000000;}
	.st6{fill:#5F5050;}
	.st7{fill:none;stroke:#CE5A50;stroke-width:8;stroke-linecap:round;stroke-linejoin:round;}
	.st8{fill:#BA4D49;}
	.st9{fill:url(#XMLID_39_);}
	.st10{fill:#DA886B;}
	.st11{fill:#2E2C3E;}
	.st12{fill:#4E4C64;}
	.st13{fill:#160F15;}
	.st14{fill:#CE5A50;}
	.st15{fill:#F5D175;}
	.st16{fill:none;stroke:#CE5A50;stroke-width:2;stroke-linecap:round;stroke-linejoin:round;}
	.st17{fill:#E6AD8E;}
	.st18{fill:#A4423E;}
</style>
<text transform="matrix(1 0 0 1 32 59)" class="st0 st1">FFD15C </text>
<g id="XMLID_35_">
	<defs>
		<circle id="XMLID_33_" cx="54.2" cy="53.8" r="54.2"></circle>
	</defs>
	<use xlink:href="#XMLID_33_" style="overflow:visible;fill:#FFD15C;"></use>
	<clipPath id="XMLID_38_">
		<use xlink:href="#XMLID_33_" style="overflow:visible;"></use>
	</clipPath>
	<g id="XMLID_36_" class="st2">
		<g id="XMLID_37_">
			<path id="XMLID_32_" class="st3" d="M89.6,97.3c-8.3-1.9-16.2-2.5-23.9-12.9c0-2.3-0.3-6.6-1.3-5.5c-1.3,1.3-20.5,4.1-21.2,5.5
				c-0.7,1.4-3.4,6.2-6.5,8c-3.1,1.8-20.2,5.9-27.9,12.1c-6,4.8-9.1,5.8-9.6,6.2l-1.5,8.3l110.5,0.7c0.4-2,0.8-6.7-0.8-9.7
				C105.3,106.2,97.9,99.2,89.6,97.3z"></path>
			<path id="XMLID_31_" class="st4" d="M60,88.7c-2.5,0.1-11.7,0-17.1-2c-2.3-4.3,14-6.1,22.4-6.5l0.1,2.7l1.7,2.7
				C66.3,85.7,62.5,88.6,60,88.7z"></path>
			<path id="XMLID_30_" class="st5" d="M51.4,100.4c6,2.7,15.5-5.7,19.5-10.2c1,0.7,5.8,3.1,8.3,4.5c3.2,1.7,22.4,9.3,24.3,11.1
				c1.5,1.4,2.7,4.5,3.1,5.8C71.5,111.9,1.5,111.8,3,109.2c1.9-3.3,20.5-11.7,21.6-12.3c0.8-0.5,9.1-3.2,13.2-4.5
				C39.8,93.9,45.4,97.7,51.4,100.4z"></path>
			<path id="XMLID_29_" class="st6" d="M55.5,94.9c-0.8-0.8-3.4-0.3-4.6,0c-2.2,2.3-1.7,9.9-1.5,9.9s6.1,1.7,9.3,0
				C61.9,103.1,56.5,95.9,55.5,94.9z"></path>
			<path id="XMLID_28_" class="st3" d="M84.7,43.6c-2.6-0.5-6.6,2.4-7.8,3.9c-2,5.8-4.2,16.4,2.8,12.7
				C88.4,55.5,87.9,44.2,84.7,43.6z"></path>
			<path id="XMLID_27_" class="st3" d="M23.6,49.6c2.6-0.5,5.6,2.4,6.9,3.9c2,5.8,4.2,16.4-2.8,12.7C18.9,61.5,20.4,50.2,23.6,49.6z
				"></path>
			<path id="XMLID_26_" class="st7" d="M31,61c-0.5-1.2-2.1-3.2-3.4-4.2c-1.7-1.3-2.7-2.3-3.5,0"></path>
			<path id="XMLID_25_" class="st7" d="M31,60.9c-0.6-0.5-2-1.3-3.4-1.2"></path>
			<path id="XMLID_24_" class="st8" d="M52.4,91.8c-2.8-2.1-8.7-7.1-10.8-10.5c-1.7,3.5-5,10.8-5,12c0,1.5,12.2,13.9,12.2,11.4
				S54.5,93.4,52.4,91.8z"></path>
			
				<linearGradient id="XMLID_39_" gradientUnits="userSpaceOnUse" x1="54.2085" y1="90.7804" x2="49.5103" y2="27.3546" gradientTransform="matrix(1 0 0 -1 0 110)">
				<stop offset="0" style="stop-color:#D3997A"></stop>
				<stop offset="1" style="stop-color:#E3A17F"></stop>
			</linearGradient>
			<path id="XMLID_23_" class="st9" d="M71.5,75.4c2.4-2.7,5-17.9,5.6-25.5c1.1-9.2-2.9-9.9-5.6-19.1c-2.7-9.2-10.8-15.4-24.3-15
				c-13.5,0.4-19.8,17.5-19.5,22.4c0.2,4.8,2.3,28.1,5,34C35.4,78.1,37.6,86,51,85.1C64.5,84.2,68.5,78.8,71.5,75.4z"></path>
			<path id="XMLID_22_" class="st10" d="M56.6,73.3c-1-0.1-5.1,0.8-7,1.2c-4.3,1.2-0.1,3.2,4.7,1.5C59,74.4,57.8,73.4,56.6,73.3z"></path>
			<path id="XMLID_21_" class="st11" d="M66.9,46.9c-4.4-1.4-8.1,1.3-9.4,2.9c-3.6-4.6,3.8-6.3,6.5-6.1c2.1,0.1,5.3,2.2,6.6,3.2
				C71.3,47.5,71.3,48.3,66.9,46.9z"></path>
			<path id="XMLID_20_" class="st11" d="M36.8,51.8c3.8-2.7,8.1-1.3,9.8-0.3c2-5.5-5.6-4.7-8.1-3.7c-2,0.8-4.3,3.8-5.2,5.2
				C32.8,53.7,33,54.5,36.8,51.8z"></path>
			<path id="XMLID_19_" class="st7" d="M76.9,53.4c0.5-1.2,2.1-3.2,3.4-4.2c1.3-1.1,2.7-2.3,3.5,0"></path>
			<path id="XMLID_18_" class="st7" d="M77,53.4c0.6-0.5,2-1.3,3.4-1.2"></path>
			<path id="XMLID_17_" class="st11" d="M65.5,28.5c-0.1,0.5-1.7,1.9-7.6,3.6c-7.4,2.1-21.7-2.1-22.8,0s-4.4,13.2-3.6,17.5
				c0.6,3.5-0.7,10.2-1,13.2c-1-3.8-2.3-12.3-3-16.5c-1-5.3-3.4-10-1.7-12.2c1.6-1.9,1.6-6.7,3.2-7.4c-0.7,0-1.4-0.3-1.4-1.6
				c0-2.1,1.9-7.8,6.1-8.9c4.2-1.2,5.9-4.1,9.7-4.6c3.8-0.6,11.6-2.5,16,0c2.6,1.5,5.3-2.2,7.6,0C70.7,15.3,75.8,23.9,65.5,28.5z"></path>
			<path id="XMLID_16_" class="st12" d="M43.3,12.4c-3.7,0.5-5.4,3.4-9.5,4.5c3.1,1.2,10.3-1.2,12.2-3c1.9-1.8,9.4,1.7,13,1.8
				c2.9,0.1,6.2-2.2,7.5-3.3c-2.3-2.2-4.9,1.5-7.5,0C54.6,9.9,47,11.9,43.3,12.4z"></path>
			<path id="XMLID_15_" class="st11" d="M73.7,49.4c-0.1,2.1,2.1,6.3,2.8,8c0.4-3.9,0.4-8.3,1.6-9.7c2-2.3,2.3-4,2.9-7.6
				c0.6-3.6-3.6-12.6-5.3-15.2c-1.7-2.7-3-4.2-5-3c-1.5,0.9-3.4,4.8-4.2,6.7c0.6,1.3,1.9,4.4,1.9,6.8c0,3,2.5,7.5,4.2,9.5
				C74.2,46.9,73.8,46.7,73.7,49.4z"></path>
			<path id="XMLID_14_" class="st12" d="M72.6,22.1c-0.4-0.3-1-0.3-1.2-0.3c-1.7,1,4.9,6.6,5.6,7C76,25.6,73.2,22.5,72.6,22.1z"></path>
			
				<ellipse id="XMLID_13_" transform="matrix(-0.2216 -0.9751 0.9751 -0.2216 27.5657 126.3525)" class="st13" cx="64.2" cy="52.2" rx="2.7" ry="1.8"></ellipse>
			
				<ellipse id="XMLID_12_" transform="matrix(6.479478e-002 -0.9979 0.9979 6.479478e-002 -16.4217 93.2711)" class="st13" cx="41.6" cy="55.4" rx="2.7" ry="1.8"></ellipse>
			<path id="XMLID_11_" class="st14" d="M56.7,62.6c-1.2-1.8-3.6-6.2-4.6-8.2c-1.3-2.5-2.7,5.5-3.8,8.2c-1.1,2.6,0.2,2.1,1.1,2.1
				C50.3,64.7,58.2,64.9,56.7,62.6z"></path>
			<path id="XMLID_10_" class="st14" d="M60.1,67.9c-2.4,1.4-11.2,2.9-15.6,3.1c-0.2,0-0.2,0.2-0.1,0.3c1.3,0.9,4.1,2.2,7.8,1.8
				C57.4,72.7,64.1,65.6,60.1,67.9z"></path>
			<path id="XMLID_9_" class="st8" d="M56.6,92.2c3.2-1.5,7.1-7,9.2-10.4c1.7,3.5,6.2,9.2,6.2,10.4c0,1.5-12.2,13.9-12.2,11.4
				S52.7,94.1,56.6,92.2z"></path>
			<path id="XMLID_8_" class="st15" d="M72,99.8c1.6-2.1,7.4-4.8,10.1-5.9c2.2,0.9,7.1,2.7,9.3,3c2.7,0.4,13.3,6.5,12.1,8.2
				c-1,1.4-12.6,8.2-18.3,11.4l-74.7-4.1c-1.9-0.4-5.7-2.1-5.7-5.4s15.7-9.6,23.5-12.4c1.2,1,4.3,3.3,7.1,5.1c3.5,2.2,3,2.7,6.4,5.4
				c3.4,2.7,5.7,4.7,7.6,4.8c1.9,0.1,8.4-1.5,9.7-2.9C62.7,105.6,70.4,101.9,72,99.8z"></path>
			<path id="XMLID_7_" class="st16" d="M65.7,58.1l2.9,4.6"></path>
			<path id="XMLID_6_" class="st16" d="M62.3,58.7l2.8,4.1"></path>
			<path id="XMLID_5_" class="st16" d="M39.4,61.6l-2.5,4.6"></path>
			<path id="XMLID_4_" class="st16" d="M43.2,61.5l-1.8,4.3"></path>
			<path id="XMLID_3_" class="st17" d="M71.1,75.3c1.4-1.6,1.5-3.1,1.9-4.3c-4,6.9-20.5,9.5-26,9.4c-3.7-0.1-8.1-1.7-10.8-2.1
				c0,0.4,0.8,1.8,3.9,4.3c3.9,2.5,10,2.2,11.7,2.1c1.6-0.1,5.6-0.9,9.7-2.1C65.2,81.6,68.5,78.4,71.1,75.3z"></path>
			<path id="XMLID_2_" class="st18" d="M72,92.4c0.4-0.6-0.2-1.5-0.6-1.9c2.3,2.1,0.6,2.4-0.6,4.5s-7.5,7.3-8.7,8.1
				c-0.8,0.5-1.6,0.8-2,0.8c-0.1,0-0.1,0-0.2,0c0,0,0.1,0,0.2,0c1-0.4,5.3-4.1,6.8-5.5C68.5,97,71.4,93.2,72,92.4z"></path>
			<path id="XMLID_1_" class="st18" d="M36.9,93.6c-0.4-0.6,0.2-1.5,0.6-1.9c-2.3,2.1-0.6,2.4,0.6,4.5c1.1,2.1,7.5,7.3,8.7,8.1
				c0.8,0.5,1.6,0.8,2,0.8c0.1,0,0.1,0,0.2,0c0,0-0.1,0-0.2,0c-1-0.4-5.3-4.1-6.8-5.5C40.3,98.2,37.4,94.4,36.9,93.6z"></path>
		</g>
	</g>
</g>
</svg>